<?xml version="1.0" encoding="UTF-8"?>
<svg id="_图层_2" data-name="图层 2" xmlns="http://www.w3.org/2000/svg" xmlns:xlink="http://www.w3.org/1999/xlink" viewBox="0 0 406.81 150.25">
  <defs>
    <style>
      .cls-1, .cls-2 {
        fill: none;
      }

      .cls-3 {
        fill: #fff;
        opacity: .55;
      }

      .cls-4 {
        clip-path: url(#clippath-17);
      }

      .cls-5 {
        clip-path: url(#clippath-11);
      }

      .cls-6 {
        clip-path: url(#clippath-16);
      }

      .cls-7 {
        clip-path: url(#clippath-10);
      }

      .cls-8 {
        clip-path: url(#clippath-15);
      }

      .cls-9 {
        clip-path: url(#clippath-13);
      }

      .cls-10 {
        clip-path: url(#clippath-14);
      }

      .cls-11 {
        clip-path: url(#clippath-12);
      }

      .cls-12 {
        clip-path: url(#clippath-1);
      }

      .cls-13 {
        clip-path: url(#clippath-3);
      }

      .cls-14 {
        clip-path: url(#clippath-2);
      }

      .cls-15 {
        clip-path: url(#clippath-7);
      }

      .cls-16 {
        clip-path: url(#clippath-6);
      }

      .cls-17 {
        clip-path: url(#clippath-9);
      }

      .cls-18 {
        clip-path: url(#clippath-8);
      }

      .cls-2 {
        clip-rule: evenodd;
      }

      .cls-19 {
        fill: #b6ca90;
      }

      .cls-20 {
        fill: #040000;
      }

      .cls-21 {
        opacity: .16;
      }

      .cls-22 {
        clip-path: url(#clippath);
      }
    </style>
    <clipPath id="clippath">
      <rect class="cls-1" width="406.81" height="150.25"/>
    </clipPath>
    <clipPath id="clippath-1">
      <rect class="cls-1" x="-1034.75" y="-100.64" width="2022.72" height="1498.26"/>
    </clipPath>
    <clipPath id="clippath-2">
      <rect class="cls-1" width="406.81" height="150.25"/>
    </clipPath>
    <clipPath id="clippath-3">
      <rect class="cls-1" x="-1034.75" y="-100.64" width="2022.72" height="1498.26"/>
    </clipPath>
    <clipPath id="clippath-4">
      <rect class="cls-1" width="406.81" height="150.25"/>
    </clipPath>
    <clipPath id="clippath-6">
      <path class="cls-2" d="M106.46,94.11c-.67,0-1.21-.18-1.63-.54-.41-.36-.68-.63-.8-.83l-13.53-20.36v20.12c0,.44-.16.81-.47,1.13-.32.32-.69.48-1.12.48h-7.74c-.43,0-.81-.16-1.12-.48-.32-.32-.47-.69-.47-1.13v-38.45c0-.44.16-.81.47-1.13.32-.32.69-.48,1.12-.48h6.15c.67,0,1.21.18,1.63.54.41.36.68.63.8.83l13.53,20.36v-20.12c0-.44.16-.81.47-1.13s.69-.48,1.12-.48h7.74c.43,0,.81.16,1.12.48.32.32.47.69.47,1.13v38.45c0,.44-.16.81-.47,1.13-.32.32-.69.48-1.12.48h-6.15Z"/>
    </clipPath>
    <clipPath id="clippath-7">
      <rect class="cls-1" x="51.03" y="22.68" width="303.34" height="110.56"/>
    </clipPath>
    <clipPath id="clippath-8">
      <path class="cls-1" d="M130.81,80.65c.12,1.51.66,2.69,1.63,3.54.97.85,2.24,1.28,3.81,1.28s2.85-.43,3.81-1.28c.97-.85,1.51-2.03,1.63-3.54.08-.6.12-1.27.12-2.02s-.04-1.43-.12-2.02c-.12-1.51-.66-2.69-1.63-3.54-.97-.85-2.24-1.28-3.81-1.28s-2.85.43-3.81,1.28c-.97.85-1.51,2.03-1.63,3.54-.08.6-.12,1.27-.12,2.02s.04,1.43.12,2.02ZM152.32,76.37c.04.6.06,1.36.06,2.29s-.02,1.7-.06,2.29c-.08,1.9-.51,3.69-1.3,5.36-.79,1.67-1.87,3.12-3.25,4.37-1.38,1.25-3.04,2.23-4.99,2.95-1.95.71-4.13,1.07-6.53,1.07s-4.58-.36-6.53-1.07c-1.95-.71-3.61-1.7-4.99-2.95-1.38-1.25-2.46-2.71-3.25-4.37-.79-1.67-1.22-3.45-1.3-5.36-.04-.6-.06-1.36-.06-2.29s.02-1.7.06-2.29c.04-1.9.45-3.69,1.24-5.36.79-1.67,1.88-3.12,3.28-4.38,1.4-1.25,3.07-2.24,5.02-2.98,1.95-.73,4.13-1.1,6.53-1.1s4.58.37,6.53,1.1c1.95.73,3.62,1.73,5.02,2.98,1.4,1.25,2.48,2.71,3.25,4.38.77,1.67,1.19,3.45,1.27,5.36Z"/>
    </clipPath>
    <clipPath id="clippath-9">
      <rect class="cls-1" x="51.03" y="22.68" width="303.34" height="110.56"/>
    </clipPath>
    <clipPath id="clippath-10">
      <path class="cls-2" d="M206.33,92.5c0,.44-.16.81-.47,1.13-.32.32-.69.48-1.12.48h-7.15c-.43,0-.81-.16-1.12-.48-.32-.32-.47-.69-.47-1.13v-15.24c0-1.98-.36-3.39-1.09-4.23-.73-.83-1.8-1.25-3.22-1.25s-2.43.42-3.16,1.25c-.73.83-1.09,2.24-1.09,4.23v15.24c0,.44-.16.81-.47,1.13-.32.32-.69.48-1.12.48h-7.15c-.43,0-.81-.16-1.12-.48s-.47-.69-.47-1.13v-15.24c0-1.98-.36-3.39-1.09-4.23-.73-.83-1.8-1.25-3.22-1.25s-2.43.41-3.16,1.22c-.73.81-1.09,2.17-1.09,4.08v15.42c0,.44-.16.81-.47,1.13-.32.32-.69.48-1.12.48h-7.45c-.43,0-.81-.16-1.12-.48-.32-.32-.47-.69-.47-1.13v-27.74c0-.44.16-.81.47-1.13.32-.32.69-.48,1.12-.48h7.15c.43,0,.81.16,1.12.48.32.32.47.69.47,1.13v1.37c.87-1.11,1.92-1.98,3.16-2.62,1.24-.63,2.69-.95,4.34-.95,2.01,0,3.83.38,5.47,1.13,1.63.75,2.96,1.92,3.99,3.51,1.14-1.51,2.53-2.66,4.17-3.45,1.63-.79,3.4-1.19,5.29-1.19,1.69,0,3.26.27,4.7.8,1.44.54,2.68,1.36,3.72,2.47,1.04,1.11,1.85,2.52,2.42,4.23.57,1.71.86,3.73.86,6.07v16.37Z"/>
    </clipPath>
    <clipPath id="clippath-11">
      <rect class="cls-1" x="51.03" y="22.68" width="303.34" height="110.56"/>
    </clipPath>
    <clipPath id="clippath-12">
      <path class="cls-1" d="M222.22,80.65c.12,1.51.66,2.69,1.63,3.54.97.85,2.24,1.28,3.81,1.28s2.85-.43,3.81-1.28c.97-.85,1.51-2.03,1.63-3.54.08-.6.12-1.27.12-2.02s-.04-1.43-.12-2.02c-.12-1.51-.66-2.69-1.63-3.54-.97-.85-2.24-1.28-3.81-1.28s-2.85.43-3.81,1.28c-.97.85-1.51,2.03-1.63,3.54-.08.6-.12,1.27-.12,2.02s.04,1.43.12,2.02ZM243.73,76.37c.04.6.06,1.36.06,2.29s-.02,1.7-.06,2.29c-.08,1.9-.51,3.69-1.3,5.36-.79,1.67-1.87,3.12-3.25,4.37-1.38,1.25-3.04,2.23-4.99,2.95-1.95.71-4.13,1.07-6.53,1.07s-4.58-.36-6.53-1.07c-1.95-.71-3.61-1.7-4.99-2.95-1.38-1.25-2.46-2.71-3.25-4.37-.79-1.67-1.22-3.45-1.3-5.36-.04-.6-.06-1.36-.06-2.29s.02-1.7.06-2.29c.04-1.9.45-3.69,1.24-5.36.79-1.67,1.88-3.12,3.28-4.38,1.4-1.25,3.07-2.24,5.02-2.98,1.95-.73,4.13-1.1,6.53-1.1s4.58.37,6.53,1.1c1.95.73,3.62,1.73,5.02,2.98,1.4,1.25,2.48,2.71,3.25,4.38.77,1.67,1.19,3.45,1.27,5.36Z"/>
    </clipPath>
    <clipPath id="clippath-13">
      <rect class="cls-1" x="51.03" y="22.68" width="303.34" height="110.56"/>
    </clipPath>
    <clipPath id="clippath-14">
      <path class="cls-2" d="M285.1,92.5c0,.44-.16.81-.47,1.13-.32.32-.69.48-1.12.48h-7.45c-.43,0-.81-.16-1.12-.48-.32-.32-.47-.69-.47-1.13v-20.12h-11.35v20.12c0,.44-.16.81-.47,1.13-.32.32-.69.48-1.12.48h-7.45c-.43,0-.81-.16-1.12-.48s-.47-.69-.47-1.13v-20.12h-4.08c-.43,0-.81-.16-1.12-.48-.32-.32-.47-.69-.47-1.13v-6.01c0-.44.16-.81.47-1.13s.69-.48,1.12-.48h4.08v-1.61c0-1.83.32-3.45.97-4.88.65-1.43,1.55-2.63,2.69-3.6,1.14-.97,2.5-1.72,4.08-2.23,1.58-.52,3.29-.77,5.14-.77h5.61c.43,0,.81.16,1.12.48.32.32.47.69.47,1.13v6.01c0,.44-.16.81-.47,1.13-.32.32-.69.48-1.12.48h-5.32c-.95,0-1.61.24-1.98.71-.37.48-.56,1.09-.56,1.85v1.31h11.35v-11.49c0-.44.16-.81.47-1.13.32-.32.69-.48,1.12-.48h7.45c.43,0,.81.16,1.12.48.31.32.47.69.47,1.13v40.83Z"/>
    </clipPath>
    <clipPath id="clippath-15">
      <rect class="cls-1" x="51.03" y="22.68" width="303.34" height="110.56"/>
    </clipPath>
    <clipPath id="clippath-16">
      <path class="cls-2" d="M307.97,103.99c-.12.32-.32.64-.59.95-.28.32-.65.48-1.12.48h-7.74c-.39,0-.73-.14-1.01-.42-.27-.28-.41-.62-.41-1.01,0-.16.02-.3.06-.42l4.49-10.65-11.94-27.92c-.04-.12-.06-.26-.06-.42,0-.4.14-.73.41-1.01.28-.28.61-.42,1-.42h7.74c.47,0,.85.16,1.12.48.28.32.47.63.59.95l6.56,15.48,6.5-15.48c.12-.32.31-.63.59-.95.27-.32.65-.48,1.12-.48h7.8c.39,0,.73.14,1,.42.28.28.42.62.42,1.01,0,.16-.02.3-.06.42l-16.48,38.99Z"/>
    </clipPath>
    <clipPath id="clippath-17">
      <rect class="cls-1" x="51.03" y="22.68" width="303.34" height="110.56"/>
    </clipPath>
  </defs>
  <g id="_图层_1-2" data-name="图层 1">
    <g class="cls-21">
      <g class="cls-22">
        <g class="cls-12">
          <rect class="cls-3" x="-1.42" y="-1.42" width="409.65" height="153.09"/>
        </g>
      </g>
      <g class="cls-14">
        <g class="cls-13">
          <rect class="cls-19" x="-1.42" y="-1.42" width="409.65" height="153.09"/>
        </g>
      </g>
    </g>
    <g class="cls-16">
      <g class="cls-15">
        <rect class="cls-20" x="78.16" y="51.02" width="37.46" height="44.5"/>
      </g>
    </g>
    <g class="cls-18">
      <g class="cls-17">
        <rect class="cls-20" x="118.69" y="61.14" width="35.1" height="34.98"/>
      </g>
    </g>
    <g class="cls-7">
      <g class="cls-5">
        <rect class="cls-20" x="156.45" y="61.14" width="51.29" height="34.38"/>
      </g>
    </g>
    <g class="cls-11">
      <g class="cls-9">
        <rect class="cls-20" x="210.11" y="61.14" width="35.1" height="34.98"/>
      </g>
    </g>
    <g class="cls-10">
      <g class="cls-8">
        <rect class="cls-20" x="245.39" y="48.64" width="41.13" height="46.88"/>
      </g>
    </g>
    <g class="cls-6">
      <g class="cls-4">
        <rect class="cls-20" x="288.23" y="61.74" width="37.7" height="45.1"/>
      </g>
    </g>
  </g>
</svg>